<svg width="203" height="203" viewBox="0 0 203 203" fill="none" xmlns="http://www.w3.org/2000/svg">
<path d="M101.5 0C127.861 -1.15226e-06 153.187 10.2554 172.121 28.5963C191.055 46.9373 202.11 71.9248 202.949 98.272C203.787 124.619 194.342 150.259 176.613 169.767C158.883 189.274 134.26 201.119 107.953 202.795C81.6455 204.471 55.7182 195.846 35.6567 178.746C15.5952 161.646 2.97338 137.411 0.461766 111.171C-2.04985 84.9302 5.74581 58.7418 22.1993 38.1466C38.6528 17.5515 62.4733 4.1653 88.6208 0.820433L92.4274 30.5779C74.0083 32.9342 57.2283 42.3638 45.6379 56.8718C34.0475 71.3797 28.556 89.8277 30.3253 108.312C32.0945 126.797 40.9858 143.869 55.1178 155.915C69.2498 167.96 87.5138 174.036 106.045 172.855C124.577 171.675 141.923 163.331 154.412 149.589C166.901 135.848 173.554 117.786 172.964 99.2261C172.373 80.6663 164.585 63.0642 151.248 50.1442C137.91 37.2243 120.069 30 101.5 30L101.5 0Z" fill="#A6CEE3"/>
</svg>
