<svg width="24" height="15" viewBox="0 0 24 15" fill="none" xmlns="http://www.w3.org/2000/svg">
<path d="M12 0.5C12.4596 0.5 12.9148 0.59053 13.3394 0.766422C13.764 0.942313 14.1499 1.20012 14.4749 1.52513C14.7999 1.85013 15.0577 2.23597 15.2336 2.66061C15.4095 3.08525 15.5 3.54037 15.5 4C15.5 4.45963 15.4095 4.91475 15.2336 5.33939C15.0577 5.76403 14.7999 6.14987 14.4749 6.47487C14.1499 6.79988 13.764 7.05769 13.3394 7.23358C12.9148 7.40947 12.4596 7.5 12 7.5C11.0717 7.5 10.1815 7.13125 9.52513 6.47487C8.86875 5.8185 8.5 4.92826 8.5 4C8.5 3.07174 8.86875 2.1815 9.52513 1.52513C10.1815 0.868749 11.0717 0.5 12 0.5ZM5 3C5.559 3 6.082 3.153 6.53 3.419C6.38048 4.83716 6.78661 6.25806 7.663 7.383C7.41764 7.8553 7.05105 8.25383 6.60083 8.53769C6.15062 8.82156 5.63299 8.98054 5.10105 8.99832C4.56912 9.01611 4.04203 8.89206 3.57386 8.63891C3.10568 8.38575 2.71329 8.0126 2.43693 7.55774C2.16057 7.10288 2.01019 6.58269 2.00123 6.05053C1.99226 5.51838 2.12503 4.99341 2.38591 4.5295C2.64679 4.06559 3.0264 3.67944 3.48577 3.41066C3.94515 3.14187 4.46777 3.00014 5 3ZM19 3C19.5322 3.00014 20.0548 3.14187 20.5142 3.41066C20.9736 3.67944 21.3532 4.06559 21.6141 4.5295C21.875 4.99341 22.0077 5.51838 21.9988 6.05053C21.9898 6.58269 21.8394 7.10288 21.5631 7.55774C21.2867 8.0126 20.8943 8.38575 20.4261 8.63891C19.958 8.89206 19.4309 9.01611 18.8989 8.99832C18.367 8.98054 17.8494 8.82156 17.3992 8.53769C16.949 8.25383 16.5824 7.8553 16.337 7.383C17.2138 6.25826 17.6203 4.83731 17.471 3.419C17.918 3.153 18.44 3 19 3ZM5.5 13.25C5.5 11.179 8.41 9.5 12 9.5C15.59 9.5 18.5 11.179 18.5 13.25V15H5.5V13.25ZM0 15V13.5C0 12.111 1.887 10.943 4.45 10.601C3.863 11.279 3.5 12.216 3.5 13.25V15H0ZM24 15H20.5V13.25C20.5 12.216 20.137 11.28 19.55 10.601C22.113 10.943 24 12.111 24 13.5V15Z" fill="white"/>
</svg>
