<svg width="20" height="16" viewBox="0 0 20 16" fill="none" xmlns="http://www.w3.org/2000/svg">
<path d="M18 16H5.00003C4.4696 16 3.96089 15.7893 3.58581 15.4142C3.21074 15.0391 3.00003 14.5304 3.00003 14V4.94L0.234029 1.642C0.111915 1.49617 0.0339258 1.31853 0.00921076 1.12994C-0.0155042 0.941341 0.0140802 0.749609 0.0944933 0.577235C0.174906 0.404861 0.302812 0.258996 0.463204 0.156754C0.623596 0.0545119 0.809821 0.000133988 1.00003 0H18C18.5305 0 19.0392 0.210714 19.4142 0.585786C19.7893 0.960859 20 1.46957 20 2V14C20 14.5304 19.7893 15.0391 19.4142 15.4142C19.0392 15.7893 18.5305 16 18 16ZM6.50003 3C6.36742 3 6.24024 3.05268 6.14647 3.14645C6.05271 3.24021 6.00003 3.36739 6.00003 3.5V4.5C6.00003 4.63261 6.05271 4.75979 6.14647 4.85355C6.24024 4.94732 6.36742 5 6.50003 5H16.5C16.6326 5 16.7598 4.94732 16.8536 4.85355C16.9474 4.75979 17 4.63261 17 4.5V3.5C17 3.36739 16.9474 3.24021 16.8536 3.14645C16.7598 3.05268 16.6326 3 16.5 3H6.50003ZM6.50003 7C6.36742 7 6.24024 7.05268 6.14647 7.14645C6.05271 7.24021 6.00003 7.36739 6.00003 7.5V8.5C6.00003 8.63261 6.05271 8.75979 6.14647 8.85355C6.24024 8.94732 6.36742 9 6.50003 9H16.5C16.6326 9 16.7598 8.94732 16.8536 8.85355C16.9474 8.75979 17 8.63261 17 8.5V7.5C17 7.36739 16.9474 7.24021 16.8536 7.14645C16.7598 7.05268 16.6326 7 16.5 7H6.50003ZM6.50003 11C6.36742 11 6.24024 11.0527 6.14647 11.1464C6.05271 11.2402 6.00003 11.3674 6.00003 11.5V12.5C6.00003 12.6326 6.05271 12.7598 6.14647 12.8536C6.24024 12.9473 6.36742 13 6.50003 13H11.5C11.6326 13 11.7598 12.9473 11.8536 12.8536C11.9474 12.7598 12 12.6326 12 12.5V11.5C12 11.3674 11.9474 11.2402 11.8536 11.1464C11.7598 11.0527 11.6326 11 11.5 11H6.50003Z" fill="#2B5680"/>
</svg>
